<svg xmlns="http://www.w3.org/2000/svg" version="1.1" xmlns:xlink="http://www.w3.org/1999/xlink" xmlns:svgjs="http://svgjs.dev/svgjs" width="2000" height="1999" viewBox="0 0 2000 1999"><g transform="matrix(1,0,0,1,-0.431486880466764,-0.4312711370263287)"><svg viewBox="0 0 343 343" data-background-color="#ffffff" preserveAspectRatio="xMidYMid meet" height="1999" width="2000" xmlns="http://www.w3.org/2000/svg" xmlns:xlink="http://www.w3.org/1999/xlink"><g id="tight-bounds" transform="matrix(1,0,0,1,0.0740000000000407,0.07400000000001228)"><svg viewBox="0 0 342.85155851775386 342.85155851775386" height="342.85155851775386" width="342.85155851775386"><g><svg></svg></g><g><svg viewBox="0 0 342.85155851775386 342.85155851775386" height="342.85155851775386" width="342.85155851775386"><g><path d="M0 171.426c0-94.676 76.75-171.426 171.426-171.426 94.676 0 171.426 76.75 171.426 171.426 0 94.676-76.75 171.426-171.426 171.426-94.676 0-171.426-76.75-171.426-171.426zM171.426 338.614c92.335 0 167.188-74.853 167.188-167.188 0-92.335-74.853-167.188-167.188-167.188-92.335 0-167.188 74.853-167.188 167.188 0 92.335 74.853 167.188 167.188 167.188z" data-fill-palette-color="tertiary" fill="#ffffff" stroke="transparent"></path><ellipse rx="164.56874808852186" ry="164.56874808852186" cx="171.42577925887693" cy="171.42577925887693" fill="#ffffff" stroke="transparent" stroke-width="0" fill-opacity="1" data-fill-palette-color="tertiary"></ellipse></g><g transform="matrix(1,0,0,1,64.84655864529837,109.90813738209414)"><svg viewBox="0 0 213.1584412271571 123.03528375356557" height="123.03528375356557" width="213.1584412271571"><g><svg viewBox="0 0 213.1584412271571 123.03528375356557" height="123.03528375356557" width="213.1584412271571"><g><svg viewBox="0 0 213.15844122715714 123.03528375356558" height="123.03528375356557" width="213.1584412271571"><g transform="matrix(1,0,0,1,0,76.04074129048752)"><svg viewBox="0 0 213.15844122715714 46.99454246307807" height="46.99454246307807" width="213.15844122715714"><g id="textblocktransform"><svg viewBox="0 0 213.15844122715714 46.99454246307807" height="46.99454246307807" width="213.15844122715714" id="textblock"><g><svg viewBox="0 0 213.15844122715714 46.99454246307807" height="46.99454246307807" width="213.15844122715714"><g transform="matrix(1,0,0,1,0,0)"><svg width="213.15844122715714" viewBox="4.2 -35.6 164.63000000000002 36.300000000000004" height="46.99454246307807" data-palette-color="#ffffff"><path d="M28.85 0.7L28.35 0.7 11.65-18.35 10.1-20.35 10.35-15.5 10.35 0 4.2 0 4.2-35.45 4.75-35.45 21.2-16.25 22.95-13.98 22.7-18.75 22.7-34.85 28.85-34.85 28.85 0.7ZM46.65 0.5L46.65 0.5Q41.15 0.5 38.15-2.95 35.15-6.4 35.15-12.5L35.15-12.5Q35.15-18.65 38.25-22.08 41.35-25.5 46.85-25.5L46.85-25.5Q52.37-25.5 55.26-21.96 58.15-18.43 58.15-12.5L58.15-12.5Q58.15-6.58 55.16-3.04 52.17 0.5 46.65 0.5ZM46.75-4.5L46.75-4.5Q51.5-4.5 51.5-12.5L51.5-12.5Q51.5-20.55 46.75-20.55L46.75-20.55Q44.4-20.55 43.1-18.69 41.8-16.82 41.8-12.5L41.8-12.5Q41.8-8.2 43.1-6.35 44.4-4.5 46.75-4.5ZM73.85 0.5L73.85 0.5Q68.35 0.5 65.35-2.95 62.35-6.4 62.35-12.5L62.35-12.5Q62.35-18.65 65.45-22.08 68.55-25.5 74.05-25.5L74.05-25.5Q79.57-25.5 82.46-21.96 85.35-18.43 85.35-12.5L85.35-12.5Q85.35-6.58 82.36-3.04 79.37 0.5 73.85 0.5ZM73.95-4.5L73.95-4.5Q78.7-4.5 78.7-12.5L78.7-12.5Q78.7-20.55 73.95-20.55L73.95-20.55Q71.6-20.55 70.3-18.69 69-16.82 69-12.5L69-12.5Q69-8.2 70.3-6.35 71.6-4.5 73.95-4.5ZM97.14 0L90.89 0 90.89-24.9 96.54-24.9 96.84-20.5Q97.24-21.48 98.08-22.58 98.92-23.68 100.41-24.44 101.89-25.2 104.24-25.2L104.24-25.2Q104.97-25.2 105.52-25.1 106.07-25 106.54-24.8L106.54-24.8 105.14-18.25Q104.34-19.05 102.69-19.05L102.69-19.05Q100.77-19.05 99.54-18.26 98.32-17.48 97.73-16.5 97.14-15.53 97.14-15L97.14-15 97.14 0ZM117.04-28.95L110.04-28.95 110.04-35.6 117.04-35.6 117.04-28.95ZM116.79 0L110.29 0 110.29-24.9 116.79-24.9 116.79 0ZM136.19 0L129.19 0 143.94-35.45 144.44-35.45 159.24 0 152.44 0 150.49-5.05 138.04-5.05 136.19 0ZM144.14-22.2L143.34-19.4 139.84-9.9 148.64-9.9 144.99-19.4 144.14-22.2ZM168.83 0L162.43 0 162.43-34.85 168.83-34.85 168.83 0Z" opacity="1" transform="matrix(1,0,0,1,0,0)" fill="#000000" class="wordmark-text-0" data-fill-palette-color="quaternary" id="text-0"></path></svg></g></svg></g></svg></g></svg></g><g transform="matrix(1,0,0,1,74.10599177159162,0)"><svg viewBox="0 0 64.9464576839739 64.9464576839739" height="64.9464576839739" width="64.9464576839739"><g><svg xmlns="http://www.w3.org/2000/svg" xmlns:xlink="http://www.w3.org/1999/xlink" version="1.1" x="0" y="0" viewBox="1 1 62 62" style="enable-background:new 0 0 64 64;" xml:space="preserve" height="64.9464576839739" width="64.9464576839739" class="icon-icon-0" data-fill-palette-color="quaternary" id="icon-0"><g fill="#ffffff" data-fill-palette-color="quaternary"><path d="M33 37H49V35H33V29H35V27H33V23H45V21H33V10C33 5.038 28.962 1 24 1 20.393 1 17.283 3.138 15.848 6.21L15.801 6.22C10.701 7.255 7 11.789 7 17 7 18.26 7.214 19.493 7.638 20.676 3.577 22.964 1 27.311 1 32 1 36.253 3.108 40.238 6.562 42.656A9.93 9.93 0 0 0 5 48C5 53.514 9.486 58 15 58 15.301 58 15.607 57.984 15.923 57.953 17.42 61.001 20.571 63 24 63 28.962 63 33 58.962 33 54V43H40V41H33zM31 54C31 57.86 27.86 61 24 61 21.125 61 18.501 59.192 17.469 56.501L17.175 55.733 16.365 55.873C15.875 55.959 15.428 56 15 56 10.589 56 7 52.411 7 48S10.589 40 15 40V38A9.97 9.97 0 0 0 7.811 41.066C4.834 39.026 3 35.636 3 32 3 27.765 5.486 23.86 9.333 22.051L10.229 21.63 9.817 20.73A8.9 8.9 0 0 1 9 17C9 13.111 11.522 9.691 15.14 8.474A9 9 0 0 0 15 10C15 11.582 15.417 13.138 16.205 14.5L17.936 13.499A7 7 0 0 1 17 10C17 6.14 20.14 3 24 3S31 6.14 31 10z" fill="#000000" data-fill-palette-color="quaternary"></path><path d="M24 57V59C26.757 59 29 56.757 29 54H27C27 55.654 25.654 57 24 57" fill="#000000" data-fill-palette-color="quaternary"></path><path d="M11 48H9C9 51.309 11.691 54 15 54V52C12.794 52 11 50.206 11 48" fill="#000000" data-fill-palette-color="quaternary"></path><path d="M57 50.184V46C57 43.243 54.757 41 52 41H42V43H52C53.654 43 55 44.346 55 46V50.184A3 3 0 0 0 53 53C53 54.654 54.346 56 56 56S59 54.654 59 53A3 3 0 0 0 57 50.184M56 54C55.449 54 55 53.551 55 53S55.449 52 56 52 57 52.449 57 53 56.551 54 56 54" fill="#000000" data-fill-palette-color="quaternary"></path><path d="M60 33A3 3 0 0 0 57.184 35H51V37H57.184A3 3 0 0 0 60 39C61.654 39 63 37.654 63 36S61.654 33 60 33M60 37C59.449 37 59 36.551 59 36S59.449 35 60 35 61 35.449 61 36 60.551 37 60 37" fill="#000000" data-fill-palette-color="quaternary"></path><path d="M57.184 27H37V29H57.184A3 3 0 0 0 60 31C61.654 31 63 29.654 63 28S61.654 25 60 25A3 3 0 0 0 57.184 27M60 27C60.551 27 61 27.449 61 28S60.551 29 60 29 59 28.551 59 28 59.449 27 60 27" fill="#000000" data-fill-palette-color="quaternary"></path><path d="M57 18V13.816A3 3 0 0 0 59 11C59 9.346 57.654 8 56 8S53 9.346 53 11C53 12.302 53.839 13.402 55 13.816V18C55 19.654 53.654 21 52 21H47V23H52C54.757 23 57 20.757 57 18M56 10C56.551 10 57 10.449 57 11S56.551 12 56 12 55 11.551 55 11 55.449 10 56 10" fill="#000000" data-fill-palette-color="quaternary"></path><path d="M11.879 26.879A5.005 5.005 0 0 0 11.879 33.95L13.293 32.536A3.005 3.005 0 0 1 13.293 28.293 3 3 0 0 1 17.536 28.293L18.95 26.879A5.006 5.006 0 0 0 11.879 26.879" fill="#000000" data-fill-palette-color="quaternary"></path><path d="M24 5C21.243 5 19 7.243 19 10H21C21 8.346 22.346 7 24 7S27 8.346 27 10H29C29 7.243 26.757 5 24 5" fill="#000000" data-fill-palette-color="quaternary"></path><path d="M28 24C28 21.243 25.757 19 23 19V21C24.654 21 26 22.346 26 24S24.654 27 23 27V29C25.757 29 28 26.757 28 24" fill="#000000" data-fill-palette-color="quaternary"></path><path d="M18 45C18 47.757 20.243 50 23 50V48C21.346 48 20 46.654 20 45S21.346 42 23 42V40C20.243 40 18 42.243 18 45" fill="#000000" data-fill-palette-color="quaternary"></path></g></svg></g></svg></g><g></g></svg></g></svg></g></svg></g></svg></g><defs></defs></svg><rect width="342.85155851775386" height="342.85155851775386" fill="none" stroke="none" visibility="hidden"></rect></g></svg></g></svg>